<svg width="254" height="37" viewBox="0 0 254 37" fill="none" xmlns="http://www.w3.org/2000/svg">
<g clip-path="url(#clip0_125_1087)">
<path d="M6.86084 6.72119H40.5138V29.7224H6.86084V6.72119Z" fill="url(#paint0_linear_125_1087)"/>
<path d="M57.2588 6.86073V7.5817C56.3983 7.67473 55.8169 7.81427 55.468 7.97707C55.1192 8.13987 54.9331 8.51199 54.9331 9.07016C54.9331 9.32598 54.9796 9.58181 55.0494 9.81438C55.1192 10.047 55.2355 10.3958 55.4215 10.861L60.6079 23.3267L65.0034 12.3029C65.2128 11.768 65.3988 11.1866 65.5849 10.6051C65.7709 10.0004 65.864 9.55856 65.864 9.25621C65.864 8.62827 65.5616 8.16313 64.9802 7.88405C64.6081 7.72125 64.1197 7.62822 63.4917 7.5817V6.86073H70.3526V7.5817C69.5618 7.65147 68.9804 7.9073 68.6315 8.3957C68.2827 8.86084 67.771 9.93067 67.0966 11.6284L60.0264 29.3038C59.8869 29.6062 59.7939 29.8155 59.7008 29.9318C59.6078 30.048 59.5148 30.1178 59.3752 30.1178C59.2124 30.1178 59.0729 30.0248 58.9566 29.8387C58.8403 29.6527 58.724 29.4201 58.5845 29.141L51.0725 11.14C50.4678 9.67484 49.8166 8.69804 49.1421 8.16313C48.7235 7.86079 48.1421 7.67473 47.3513 7.5817V6.86073H57.2588ZM79.3996 6.79096V22.4895C79.3996 23.6058 79.5624 24.4896 79.8647 25.1641C80.4694 26.3967 81.609 27.0246 83.237 27.0246C84.3533 27.0246 85.4464 26.6525 86.5395 25.9315C87.1442 25.5362 87.7721 24.9547 88.4001 24.2338V10.7912C88.4001 9.51204 88.1442 8.69804 87.6558 8.30267C87.1674 7.9073 86.1906 7.67473 84.7254 7.5817V6.76771H92.5631V24.2338C92.5631 25.3036 92.7491 26.0478 93.1445 26.4665C93.5399 26.8851 94.3539 27.0479 95.5865 27.0014V27.7223C94.7027 27.9549 94.0515 28.141 93.6329 28.2572C93.2143 28.3735 92.5166 28.6061 91.5398 28.9084C91.1211 29.048 90.2141 29.3968 88.7954 29.955C88.7024 29.955 88.6792 29.9085 88.6559 29.8387C88.6326 29.769 88.6326 29.6759 88.6326 29.5596V25.5362C87.5163 26.8618 86.493 27.8386 85.5627 28.4898C84.1673 29.4666 82.6788 29.955 81.1206 29.955C79.7019 29.955 78.353 29.4434 77.0739 28.4433C75.7947 27.4433 75.1435 25.7687 75.1435 23.4198V10.6982C75.1435 9.39576 74.8877 8.51199 74.3295 8.0701C73.9807 7.79102 73.2364 7.60496 72.0969 7.48868V6.76771H79.3996V6.79096ZM101.098 10.0237C103.122 7.81427 105.727 6.72119 108.913 6.72119C112.076 6.72119 114.704 7.76776 116.797 9.8609C118.867 11.954 119.913 14.7216 119.913 18.2102C119.913 21.3964 118.913 24.1873 116.89 26.5362C114.867 28.8852 112.262 30.0713 109.052 30.0713C105.982 30.0713 103.378 28.9317 101.238 26.6758C99.0983 24.4198 98.0518 21.5592 98.0518 18.1404C98.0518 14.9309 99.0518 12.2331 101.098 10.0237ZM104.913 9.34924C103.308 10.8144 102.494 13.3495 102.494 16.9311C102.494 19.7917 103.145 22.4662 104.447 24.9315C105.75 27.42 107.541 28.6526 109.843 28.6526C111.657 28.6526 113.029 27.8154 114.006 26.1641C114.983 24.5129 115.471 22.3267 115.471 19.6521C115.471 16.8613 114.843 14.2565 113.611 11.7912C112.378 9.32598 110.564 8.09336 108.215 8.09336C106.936 8.09336 105.843 8.51199 104.913 9.34924ZM122.332 29.141C123.844 29.0247 124.844 28.7456 125.332 28.327C125.821 27.9317 126.077 27.0711 126.077 25.7455V14.6053C126.077 13.0006 125.914 11.8377 125.611 11.14C125.309 10.4423 124.751 10.0935 123.937 10.0935C123.774 10.0935 123.542 10.1167 123.286 10.1632C123.007 10.2098 122.728 10.2563 122.425 10.326V9.5353C123.355 9.2097 124.332 8.8841 125.309 8.5585C126.309 8.20964 126.984 7.97707 127.379 7.81427C128.193 7.51193 129.053 7.16308 129.937 6.76771C130.053 6.76771 130.123 6.81422 130.147 6.90725C130.17 7.00028 130.193 7.18633 130.193 7.46542V11.5354C131.216 10.0702 132.216 8.90736 133.17 8.09336C134.123 7.27936 135.124 6.86073 136.147 6.86073C136.961 6.86073 137.635 7.11656 138.147 7.62822C138.659 8.13987 138.914 8.76781 138.914 9.5353C138.914 10.2098 138.728 10.7912 138.333 11.2563C137.938 11.7215 137.449 11.954 136.845 11.954C136.24 11.954 135.635 11.675 135.007 11.0935C134.403 10.5121 133.914 10.233 133.565 10.233C133.007 10.233 132.333 10.6982 131.495 11.6052C130.681 12.5355 130.263 13.489 130.263 14.4658V25.4897C130.263 26.8851 130.588 27.8386 131.263 28.3735C131.914 28.9084 133.03 29.1643 134.565 29.141V29.9318H122.332V29.141ZM148.217 6.86073C148.427 6.79096 148.403 7.0933 148.403 7.23285V24.8385C148.403 26.699 148.636 27.8619 149.078 28.327C149.543 28.7922 150.543 29.0945 152.148 29.234V29.955H140.194V29.234C141.961 29.0712 143.054 28.7689 143.519 28.3503C143.984 27.9084 144.194 26.7688 144.194 24.8617V13.0006C144.194 11.954 144.124 11.2098 143.984 10.8144C143.729 10.14 143.24 9.81438 142.45 9.81438C142.263 9.81438 142.101 9.83764 141.938 9.8609C141.775 9.88416 141.287 10.0237 140.473 10.2563V9.30273C140.473 9.27947 143.984 8.18639 148.217 6.86073Z" fill="#231F20"/>
<line x1="181.554" y1="11.2769" x2="195.327" y2="25.0499" stroke="#CACACA" stroke-width="0.527328"/>
<line y1="-0.263664" x2="19.4779" y2="-0.263664" transform="matrix(-0.707107 0.707107 0.707107 0.707107 195.14 11.4634)" stroke="#CACACA" stroke-width="0.527328"/>
<path fill-rule="evenodd" clip-rule="evenodd" d="M235.432 9.88525C228.711 9.88525 223.261 15.3391 223.261 22.0686C223.261 24.6177 224.042 26.9813 225.377 28.9363C225.671 29.3665 225.561 29.9534 225.13 30.2473C224.7 30.5411 224.113 30.4306 223.819 30.0004C222.277 27.7417 221.374 25.0092 221.374 22.0686C221.374 14.2988 227.667 7.99861 235.432 7.99861C243.196 7.99861 249.489 14.2988 249.489 22.0686C249.489 25.0092 248.587 27.7417 247.044 30.0004C246.75 30.4306 246.163 30.5411 245.733 30.2473C245.303 29.9534 245.192 29.3665 245.486 28.9363C246.822 26.9813 247.603 24.6177 247.603 22.0686C247.603 15.3391 242.153 9.88525 235.432 9.88525Z" fill="url(#paint1_radial_125_1087)"/>
<path fill-rule="evenodd" clip-rule="evenodd" d="M235.432 13.8764C230.897 13.8764 227.252 17.4759 227.252 21.877C227.252 23.6521 227.842 25.2913 228.844 26.6196C229.157 27.0357 229.074 27.6271 228.658 27.9407C228.242 28.2544 227.651 28.1713 227.337 27.7553C226.099 26.1134 225.366 24.0788 225.366 21.877C225.366 16.3989 229.89 11.9897 235.432 11.9897C240.973 11.9897 245.498 16.3989 245.498 21.877C245.498 24.0788 244.764 26.1134 243.526 27.7553C243.213 28.1713 242.621 28.2544 242.205 27.9407C241.789 27.6271 241.706 27.0357 242.02 26.6196C243.021 25.2913 243.611 23.6521 243.611 21.877C243.611 17.4759 239.967 13.8764 235.432 13.8764Z" fill="url(#paint2_radial_125_1087)"/>
<path fill-rule="evenodd" clip-rule="evenodd" d="M235.432 5.89396C226.5 5.89396 219.27 13.0845 219.27 21.9412C219.27 25.3913 220.365 28.585 222.23 31.2014C222.533 31.6256 222.434 32.2147 222.01 32.5171C221.586 32.8195 220.997 32.7208 220.694 32.2966C218.609 29.3718 217.383 25.7976 217.383 21.9412C217.383 12.0306 225.47 4.00732 235.432 4.00732C245.394 4.00732 253.48 12.0306 253.48 21.9412C253.48 25.7976 252.254 29.3718 250.169 32.2966C249.867 32.7208 249.278 32.8195 248.853 32.5171C248.429 32.2147 248.331 31.6256 248.633 31.2014C250.498 28.585 251.594 25.3913 251.594 21.9412C251.594 13.0845 244.364 5.89396 235.432 5.89396Z" fill="url(#paint3_radial_125_1087)"/>
</g>
<defs>
<linearGradient id="paint0_linear_125_1087" x1="23.6841" y1="7.4345" x2="23.6841" y2="29.0229" gradientUnits="userSpaceOnUse">
<stop stop-color="#F8EB30"/>
<stop offset="0.319" stop-color="#FAAF43"/>
<stop offset="0.767" stop-color="#28A8E0"/>
<stop offset="1" stop-color="#A4DEF9"/>
</linearGradient>
<radialGradient id="paint1_radial_125_1087" cx="0" cy="0" r="1" gradientUnits="userSpaceOnUse" gradientTransform="translate(248.895 11.561) rotate(138.044) scale(33.7522 42.5247)">
<stop stop-color="#F9CD4D"/>
<stop offset="0.17" stop-color="#FFBC00"/>
<stop offset="0.54984" stop-color="#E38803"/>
<stop offset="1" stop-color="#B65F02"/>
</radialGradient>
<radialGradient id="paint2_radial_125_1087" cx="0" cy="0" r="1" gradientUnits="userSpaceOnUse" gradientTransform="translate(248.895 11.561) rotate(138.044) scale(33.7522 42.5247)">
<stop stop-color="#F9CD4D"/>
<stop offset="0.17" stop-color="#FFBC00"/>
<stop offset="0.54984" stop-color="#E38803"/>
<stop offset="1" stop-color="#B65F02"/>
</radialGradient>
<radialGradient id="paint3_radial_125_1087" cx="0" cy="0" r="1" gradientUnits="userSpaceOnUse" gradientTransform="translate(248.895 11.561) rotate(138.044) scale(33.7522 42.5247)">
<stop stop-color="#F9CD4D"/>
<stop offset="0.17" stop-color="#FFBC00"/>
<stop offset="0.54984" stop-color="#E38803"/>
<stop offset="1" stop-color="#B65F02"/>
</radialGradient>
<clipPath id="clip0_125_1087">
<rect width="253.48" height="36.6997" fill="white"/>
</clipPath>
</defs>
</svg>
